<?xml version="1.0" encoding="utf-8"?>
<?xml-stylesheet type="text/xsl" href="rss1.xsl"?>
<rss version="2.0" xmlns:atom="http://www.w3.org/2005/Atom" xmlns:content="http://purl.org/rss/1.0/modules/content/" xmlns:dc="http://purl.org/dc/elements/1.1/" xmlns:media="http://search.yahoo.com/mrss/">
<channel>
 <title>Getty</title>
 <link>http://www.gettyimg.com/</link>
 <atom:link href="http://www.gettyimg.com/" rel="self" type="application/rss+xml" />

 
                <item>
                <title><![CDATA[【Apple Music】WEB-RiP - Dua Lipa - Houdini [Apple HD Music Video]]]></title>
                <link><![CDATA[https://sharemania.us/threads/dua-lipa-houdini-apple-hd-music-video.242649/]]></link>
                <description><![CDATA[<article>
<blockquote class="messageText SelectQuoteContainer ugc baseHtml">
<span style="font-size: 22px"><b>Dua Lipa - Houdini [Apple HD Music Video]</b></span><br>
<br>
<img src="https://imgur.com/tqopF0k.jpg" class="bbCodeImage LbImage" alt="[​IMG]" data-url="https://imgur.com/tqopF0k.jpg" style=""><br>
<br>
<div class="bbCodeBlock bbCodeCode">
<div class="type">Code:</div>
<pre>General
Format                         : MPEG-4
Codec ID                       : M4V  (isom/iso4/M4V /mp42)
File size                      : 225 MiB
Duration                       : 3 min 10 s
Overall bit rate mode          : Variable
Overall bit rate               : 9 916 kb/s
Movie name                     : Houdini
Performer                      : Dua Lipa
Genre                          : Pop
ContentType                    : Music Video
Recorded date                  : UTC 2023-11-09 08:00:00
Encoded date                   : UTC 2024-03-12 18:06:14
Tagged date                    : UTC 2024-03-12 18:06:14
Copyright                      : ℗ Under exclusive license to Warner Records UK, a division of Warner Music UK Limited, © 2023 Radical22 Limited
Cover                          : Yes
Rating                         : None
GenreID                        : 1614
AppleStoreCountry              : Canada
AlbumTitleID                   : 1031397873
AppleStoreCatalogID            : 1715832411

Video
ID                             : 2
Format                         : AVC
Format/Info                    : Advanced Video Codec
Format profile                 : High@L4
Format settings                : CABAC / 4 Ref Frames
Format settings, CABAC         : Yes
Format settings, Reference fra : 4 frames
Codec ID                       : avc1
Codec ID/Info                  : Advanced Video Coding
Duration                       : 3 min 10 s
Duration_FirstFrame            : 40 ms
Bit rate                       : 9 639 kb/s
Maximum bit rate               : 24.0 Mb/s
Width                          : 1 618 pixels
Height                         : 1 080 pixels
Display aspect ratio           : 3:2
Frame rate mode                : Constant
Frame rate                     : 25.000 FPS
Color space                    : YUV
Chroma subsampling             : 4:2:0
Bit depth                      : 8 bits
Scan type                      : Progressive
Bits/(Pixel*Frame)             : 0.221
Stream size                    : 219 MiB (97%)
Title                          : Core Media Video
Language                       : English
Encoded date                   : UTC 2024-02-17 10:55:59
Tagged date                    : UTC 2024-03-12 18:06:30
Color range                    : Limited
Color primaries                : BT.709
Transfer characteristics       : BT.709
Matrix coefficients            : BT.709
Codec configuration box        : avcC

Audio
ID                             : 1
Format                         : AAC LC
Format/Info                    : Advanced Audio Codec Low Complexity
Codec ID                       : mp4a-40-2
Duration                       : 3 min 10 s
Duration_LastFrame             : -12 ms
Bit rate mode                  : Variable
Bit rate                       : 265 kb/s
Maximum bit rate               : 346 kb/s
Channel(s)                     : 2 channels
Channel layout                 : L R
Sampling rate                  : 48.0 kHz
Frame rate                     : 46.875 FPS (1024 SPF)
Compression mode               : Lossy
Stream size                    : 5.94 MiB (3%)
Title                          : Core Media Audio
Encoded date                   : UTC 2024-02-17 10:55:44
Tagged date                    : UTC 2024-03-12 18:06:30

Text
ID                             : 3
Format                         : EIA-608
Codec ID                       : c608
Duration                       : 3 min 8 s
Bit rate mode                  : Variable
Bit rate                       : 149 b/s
Maximum bit rate               : 1 200 b/s
Frame rate                     : 0.239 FPS
Stream size                    : 3.43 KiB (0%)
Title                          : Core Media Closed Caption
Language                       : English
Forced                         : No
Encoded date                   : UTC 2024-02-17 10:55:59
Tagged date                    : UTC 2024-03-12 18:06:30
</pre>
</div>
<div class="bbCodeBlock bbCodeVfcHH HiddenContent">
<div class="attribution type">Hidden Content:</div>
<blockquote>You must reply before you can see the hidden data contained here.</blockquote>
</div>
<div class="messageTextEndMarker">&nbsp;</div>
</blockquote>
</article>]]></description>
                <author><![CDATA[Mu$iC @$YLUM]]></author>
                </item>

                
                <item>
                <title><![CDATA[【Unreleased/Unofficial (lossless)】FLAC - Björk Guðmundsdóttir - Björk | Rare | .FLAC 16bits ／ 44.1kHz]]></title>
                <link><![CDATA[https://sharemania.us/threads/bj%C3%B6rk-gu%C3%B0mundsd%C3%B3ttir-bj%C3%B6rk-rare-flac-16bits-%EF%BC%8F-44-1khz.242648/]]></link>
                <description><![CDATA[<article>
<blockquote class="messageText SelectQuoteContainer ugc baseHtml">
<div style="text-align: center"><img src="https://ia902804.us.archive.org/31/items/BjorkBjork/Bj%C3%B6rk.jpg" class="bbCodeImage LbImage" alt="[​IMG]" data-url="https://ia902804.us.archive.org/31/items/BjorkBjork/Bj%C3%B6rk.jpg" style=""><br>
<br>
<span style="font-family: 'Times New Roman'"><span style="font-size: 15px"><b><i>
<div class="bbCodeBlock bbCodeQuote">
<aside>
<blockquote class="quoteContainer"><div class="quote">This album is the "real" debut of the icelandic singer, Björk. Released in 1977, Björk was only 11 years old when she recorded the album. The songs are a mixture of covers translated into Icelandic, like 'The Beatles' hit "The Fool On The Hill" ('Álfur Út Úr Hól'), 'Edgar Winter's' "Alta Mira", 'Melanie Safka's' 'Christopher Robin' ("Bænin") and 'Stevie Wonder's' song "Your Kiss Is Sweet" ('Búkolla'), but it also contained some songs written specifically for the album, like the song "Arabadrengurinn" ('The Arab Boy') written by her stepfather Sævar, and one instrumental flute and piano tribute to Icelandic painter Jóhannes Kjarval written &amp; performed by 11-year old Björk herself.</div><div class="quoteExpand">Click to expand...</div></blockquote>
</aside>
</div></i></b><br>
<br>
<b><i>
<div class="bbCodeBlock bbCodeQuote">
<aside>
<blockquote class="quoteContainer"><div class="quote">The album was released in two formats: VINYL and CASSETTE, in fairly limited edition (at least 7,000 copies) and is rare to find outside of Iceland. It was recorded at Hljarijinn Studios in Reykjavík. Hildur Hauksdóttir (Björk's mother) designed the cover and the photo was taken at a local Reykjavík studio.</div><div class="quoteExpand">Click to expand...</div></blockquote>
</aside>
</div></i></b><br>
<div class="bbCodeBlock bbCodeVfcHH HiddenContent">
<div class="attribution type">Hidden Content:</div>
<blockquote>You must reply before you can see the hidden data contained here.</blockquote>
</div></span></span>​</div>
<div class="messageTextEndMarker">&nbsp;</div>
</blockquote>
</article>]]></description>
                <author><![CDATA[Nuric]]></author>
                </item>

                </channel></rss>